<svg version="1.2" xmlns="http://www.w3.org/2000/svg" viewBox="0 0 250 77" width="250" height="77">
	<title>logo-svg</title>
	<style>
		.s0 { fill: #0603b8 } 
		.s1 { fill: #ffffff } 
		.s2 { fill: #000000 } 
	</style>
	<path id="Layer" class="s0" d="m35.7 73.2c19 0 34.4-15.4 34.4-34.4 0-19-15.4-34.4-34.4-34.4-19 0-34.4 15.4-34.4 34.4 0 19 15.4 34.4 34.4 34.4z"/>
	<path id="Layer" fill-rule="evenodd" class="s1" d="m64.8 57.1l-11.1 0.3-2.7 2c-3 2-6.2 3.4-9.6 4.3q-2.7 0.5-5.4 0.5c-10.9 0-20.6-7-23.9-17.4-3.4-10.4 0.2-21.8 9.1-28.2 8.8-6.5 20.7-6.5 29.6-0.2 8.9 6.4 12.7 17.7 9.4 28.1l-0.4 1.2zm-29 2.1c5.2 0 10.3-2 14.1-5.7l-22.4-4.6c-1.8-0.4-2.2-1.7-0.9-3l8.5-8.5c0.6-0.5 0.9-1.3 0.8-2.1-0.1-0.7-0.7-1.4-1.4-1.7l-6.2-3.1-10.7-5.5 2 1.6c-4.7 6.1-5.5 14.4-2 21.3 3.4 6.9 10.5 11.3 18.2 11.3zm25.5-4.2c0 0 0-0.1 0-0.1l-8-5.6c5.4-9 3.1-20.6-5.3-26.9-8.4-6.2-20.3-5-27.3 2.8l26.4 6.5c1.7 0.5 2.1 1.8 0.9 3.1l-7.1 7.1c-0.6 0.4-0.9 1.2-0.8 2 0.2 0.7 0.7 1.4 1.4 1.6l7.2 3.5z"/>
	<path id="Layer" class="s2" d="m41.5 45.5l19.7 9.5c0 0 0 0 0-0.1l-19.7-13.8-0.7 0.7c-0.9 0.8-1.1 2.1-0.3 3.1q0.4 0.4 1 0.6zm-7-11.9l-17-8.7 16.7 13.3 0.9-0.9c0.9-0.7 1-2.1 0.2-3.1q-0.3-0.4-0.8-0.6z"/>
	<path id="Layer" fill-rule="evenodd" class="s2" d="m84.3 24.7h27.2v2.7l-14.8 23h15.2v8.3h-28.4v-3l15.2-23.2h-14.4zm47.9 11.6l7.3-11.6h10.9v0.4l-13.5 20v13.6h-9.6v-13.6l-13-20v-0.4h10.9zm52.9 22.3h-10.6l-7.9-11h-3.3v11h-9.7v-34h16.6c8.7 0 13.2 5.6 13.2 11.7 0 4.2-1.5 7.8-7.2 10.3l8.8 11.4zm-21.8-26.3v8.2h7.1c2.5 0 3.6-1.9 3.6-3.9 0-2.1-1.2-4.3-3.7-4.3 0 0-7 0-7 0zm51.6 20.8h-15.2l-2.2 5.6h-10.2l15.2-34h9.7l15.2 34h-10.3zm-7.6-18.9l-4.3 10.8h8.7z"/>
</svg>